<svg xmlns="http://www.w3.org/2000/svg" version="1.1" xmlns:xlink="http://www.w3.org/1999/xlink" width="597" height="586"><svg width="597" height="586" viewBox="0 0 597 586" fill="none" xmlns="http://www.w3.org/2000/svg">
<ellipse cx="298.5" cy="293" rx="298.5" ry="293" fill="#04202C"></ellipse>
<rect x="134" y="380" width="259" height="52" fill="#FEFEFC"></rect>
<path d="M393 511H189.035C169.009 501.288 150.513 488.994 134 474.562V459H393V511Z" fill="#FEFEFC"></path>
<path d="M393 353H134V301H393V353ZM163 315C156.373 315 151 320.373 151 327C151 333.627 156.373 339 163 339C169.627 339 175 333.627 175 327C175 320.373 169.627 315 163 315ZM198 315C191.373 315 186 320.373 186 327C186 333.627 191.373 339 198 339C204.627 339 210 333.627 210 327C210 320.373 204.627 315 198 315Z" fill="#32A9DE"></path>
<circle cx="100" cy="222" r="12" fill="#32A9DE"></circle>
<circle cx="491" cy="184" r="12" fill="#32A9DE"></circle>
<path d="M415 301H435L513 241H531V460H513L435 400H415V301Z" fill="#FEFEFC"></path>
<path d="M161.972 34.2646C146.447 51.0825 134.071 70.8493 125.78 92.6318C67.2177 140.876 30 213.18 30 294C30 439.251 150.212 557 298.5 557C375.584 557 445.081 525.181 494.05 474.222L517.562 492.351C463.038 549.946 385.074 586 298.5 586C133.643 586 0 455.267 0 294C0 180.858 65.7812 82.7463 161.972 34.2646ZM422.087 28.125C525.27 74.0952 597 175.853 597 294C597 350.627 580.521 403.49 552 448.249V380.888C561.716 353.688 567 324.448 567 294C567 263.552 561.716 234.314 552 207.114V201H549.729C531.758 154.446 500.687 114.194 460.921 84.5605C451.629 63.3075 438.372 44.1854 422.087 28.125Z" fill="#32A9DE"></path>
<path d="M96 282H127C127 282 113 282 113 304C113 326 113 353 113 353H96V282Z" fill="#FEFEFC"></path>
<path d="M531 390.625V460H513L435 400H415V346.278L531 390.625Z" fill="#CCE3EB"></path>
<path d="M295 0C381.709 0 452 70.2913 452 157C452 208.002 427.68 253.322 390.005 282H311.698C331.101 277.051 345 263.726 345 248.06C345 203.06 316.614 217.06 295 217.06C273.386 217.06 245 203.06 245 248.06C245 263.725 258.899 277.051 278.302 282H199.995C162.32 253.322 138 208.002 138 157C138 70.2913 208.291 0 295 0ZM203.971 107.03C184.088 107.03 167.971 129.416 167.971 157.03C167.971 184.644 184.089 207.03 203.971 207.03C248.97 207.03 234.971 178.644 234.971 157.03C234.971 135.416 248.97 107.03 203.971 107.03ZM386.03 107.029C341.031 107.029 355.029 135.415 355.029 157.029C355.029 178.643 341.03 207.029 386.029 207.029C405.911 207.029 422.029 184.644 422.029 157.03C422.029 129.416 405.912 107.03 386.03 107.029ZM295 120C274.565 120 258 136.565 258 157C258 177.435 274.565 194 295 194C315.435 194 332 177.435 332 157C332 136.565 315.435 120 295 120ZM295 30C267.386 30 245 46.1177 245 66C245 111 273.386 97 295 97C316.614 97 345 111 345 66C345 46.1177 322.614 30 295 30Z" fill="#FEFEFC"></path>
<path d="M138.38 146.033C143.036 204.711 190.344 253.185 253.545 268.189C259.482 274.513 268.136 279.407 278.302 282H199.995C162.32 253.322 138 208.002 138 157C138 153.313 138.13 149.656 138.38 146.033ZM451.619 146.033C451.869 149.656 452 153.313 452 157C452 208.002 427.68 253.322 390.005 282H311.698C321.864 279.407 330.517 274.513 336.454 268.189C399.655 253.186 446.963 204.711 451.619 146.033Z" fill="#CCE3EB"></path>
<path d="M517.562 492.351C509.625 500.734 501.191 508.66 492.307 516.086L468.359 497.692C477.437 490.421 486.019 482.579 494.05 474.222L517.562 492.351ZM567 421.729C562.46 430.844 557.451 439.695 552 448.249V380.888C561.716 353.688 567 324.448 567 294C567 289.641 566.891 285.307 566.677 281H567V421.729Z" fill="#1375A1"></path>
</svg><style>@media (prefers-color-scheme: light) { :root { filter: none; } }
@media (prefers-color-scheme: dark) { :root { filter: none; } }
</style></svg>